HIERARCHY
ROOT Hips
{
	OFFSET 0.000000 0.000000 0.000000
	CHANNELS 6 Xposition Yposition Zposition Zrotation Yrotation Xrotation 
	JOINT LHipJoint
	{
		OFFSET 0.000000 0.000000 0.000000
		CHANNELS 3 Zrotation Yrotation Xrotation
		JOINT LeftUpLeg
		{
			OFFSET 1.363060 -1.794630 0.839290
			CHANNELS 3 Zrotation Yrotation Xrotation
			JOINT LeftLeg
			{
				OFFSET 2.448110 -6.726130 0.000000
				CHANNELS 3 Zrotation Yrotation Xrotation
				JOINT LeftFoot
				{
					OFFSET 2.562200 -7.039590 0.000000
					CHANNELS 3 Zrotation Yrotation Xrotation
					JOINT LeftToeBase
					{
						OFFSET 0.157640 -0.433110 2.322550
						CHANNELS 3 Zrotation Yrotation Xrotation
						End Site
						{
							OFFSET 0.000000 0.000000 0.000000
						}
					}
				}
			}
		}
	}
	JOINT RHipJoint
	{
		OFFSET 0.000000 0.000000 0.000000
		CHANNELS 3 Zrotation Yrotation Xrotation
		JOINT RightUpLeg
		{
			OFFSET -1.305520 -1.794630 0.839290
			CHANNELS 3 Zrotation Yrotation Xrotation
			JOINT RightLeg
			{
				OFFSET -2.542530 -6.985550 0.000000
				CHANNELS 3 Zrotation Yrotation Xrotation
				JOINT RightFoot
				{
					OFFSET -2.568260 -7.056230 0.000000
					CHANNELS 3 Zrotation Yrotation Xrotation
					JOINT RightToeBase
					{
						OFFSET -0.164730 -0.452590 2.363150
						CHANNELS 3 Zrotation Yrotation Xrotation
						End Site
						{
							OFFSET 0.000000 0.000000 0.000000
						}
					}
				}
			}
		}
	}
	JOINT LowerBack
	{
		OFFSET 0.000000 0.000000 0.000000
		CHANNELS 3 Zrotation Yrotation Xrotation
		JOINT Spine
		{
			OFFSET 0.028270 2.035590 -0.193380
			CHANNELS 3 Zrotation Yrotation Xrotation
			JOINT Spine1
			{
				OFFSET 0.056720 2.048850 -0.042750
				CHANNELS 3 Zrotation Yrotation Xrotation
				JOINT Neck
				{
					OFFSET 0.000000 0.000000 0.000000
					CHANNELS 3 Zrotation Yrotation Xrotation
					JOINT Neck1
					{
						OFFSET -0.054170 1.746240 0.172020
						CHANNELS 3 Zrotation Yrotation Xrotation
						JOINT Head
						{
							OFFSET 0.104070 1.761360 -0.123970
							CHANNELS 3 Zrotation Yrotation Xrotation
							End Site
							{
								OFFSET 0.000000 0.000000 0.000000
							}
						}
					}
				}
				JOINT LeftShoulder
				{
					OFFSET 0.000000 0.000000 0.000000
					CHANNELS 3 Zrotation Yrotation Xrotation
					JOINT LeftArm
					{
						OFFSET 3.362410 1.200890 -0.311210
						CHANNELS 3 Zrotation Yrotation Xrotation
						JOINT LeftForeArm
						{
							OFFSET 4.983000 -0.000000 -0.000000
							CHANNELS 3 Zrotation Yrotation Xrotation
							JOINT LeftHand
							{
								OFFSET 3.483560 -0.000000 -0.000000
								CHANNELS 3 Zrotation Yrotation Xrotation
								JOINT LeftFingerBase
								{
									OFFSET 0.000000 0.000000 0.000000
									CHANNELS 3 Zrotation Yrotation Xrotation
									JOINT LeftHandIndex1
									{
										OFFSET 0.715260 -0.000000 -0.000000
										CHANNELS 3 Zrotation Yrotation Xrotation
										End Site
										{
											OFFSET 0.000000 0.000000 0.000000
										}
									}
								}
								JOINT LThumb
								{
									OFFSET 0.000000 0.000000 0.000000
									CHANNELS 3 Zrotation Yrotation Xrotation
									End Site
									{
										OFFSET 0.000000 0.000000 0.000000
									}
								}
							}
						}
					}
				}
				JOINT RightShoulder
				{
					OFFSET 0.000000 0.000000 0.000000
					CHANNELS 3 Zrotation Yrotation Xrotation
					JOINT RightArm
					{
						OFFSET -3.136600 1.374050 -0.404650
						CHANNELS 3 Zrotation Yrotation Xrotation
						JOINT RightForeArm
						{
							OFFSET -5.241900 -0.000000 -0.000000
							CHANNELS 3 Zrotation Yrotation Xrotation
							JOINT RightHand
							{
								OFFSET -3.444170 -0.000000 -0.000000
								CHANNELS 3 Zrotation Yrotation Xrotation
								JOINT RightFingerBase
								{
									OFFSET 0.000000 0.000000 0.000000
									CHANNELS 3 Zrotation Yrotation Xrotation
									JOINT RightHandIndex1
									{
										OFFSET -0.622530 -0.000000 -0.000000
										CHANNELS 3 Zrotation Yrotation Xrotation
										End Site
										{
											OFFSET 0.000000 0.000000 0.000000
										}
									}
								}
								JOINT RThumb
								{
									OFFSET 0.000000 0.000000 0.000000
									CHANNELS 3 Zrotation Yrotation Xrotation
									End Site
									{
										OFFSET 0.000000 0.000000 0.000000
									}
								}
							}
						}
					}
				}
			}
		}
	}
}
MOTION
Frames: 12
Frame Time: 0.008333
0.151392 17.737302 -0.247723 -0.776429 2.827636 2.065193 0.756024 5.619349 3.160690 -18.217388 -23.909541 3.935832 -0.965598 3.695987 14.449062 -2.064815 10.901547 -8.196829 1.355400 -7.369700 -20.815500 -3.602877 -5.774736 1.630433 22.164140 10.744392 10.255300 0.802779 1.235540 2.349340 1.280111 -9.044730 -7.591036 -0.985800 6.319800 -17.715300 -1.255622 -0.358797 -7.147852 -0.469603 -0.978856 4.689286 2.489606 -0.369513 0.989369 -22.381521 -12.844093 4.599421 14.577039 -16.587727 5.432638 8.982000 -9.291600 7.324000 -11.810794 -10.630689 2.983409 -71.030502 -25.762049 39.127139 150.604630 -36.254444 -109.686324 -1.449165 3.980608 -11.906056 -21.984837 40.304954 -13.003500 -7.125000 0.000000 0.000000 -58.617600 56.379000 -21.337100 11.046538 11.415045 3.150297 68.033873 19.943553 25.435864 -152.087119 33.738579 -110.621244 2.880210 -0.121692 14.132232 29.733855 12.426443 6.079900 7.125000 0.000000 0.000000 34.608500 -16.641700 29.258700 
0.154048 17.737404 -0.248438 -0.860500 2.619752 2.086878 0.765666 5.607694 3.163554 -18.140875 -23.711239 3.814195 -0.955250 3.726529 14.537183 -2.056296 10.876278 -8.259552 1.370600 -7.409100 -20.933100 -3.602180 -5.770277 1.630302 22.256558 10.959294 10.275682 0.803334 1.235248 2.345920 1.285145 -9.063249 -7.546584 -1.001000 6.366700 -17.852300 -1.140784 -0.299658 -7.103080 -0.357442 -0.906964 4.661284 2.404537 -0.322654 0.948729 -22.260294 -12.894577 4.520729 14.502086 -16.633885 5.322752 8.915700 -9.299600 7.287500 -11.960813 -10.669299 2.952519 -71.406021 -25.019897 40.302518 151.231892 -35.795105 -110.065015 -1.400935 3.994358 -11.865226 -21.280435 39.965859 -12.480900 -7.125000 0.000000 0.000000 -57.693900 56.307900 -20.705100 11.148598 11.476764 3.165654 67.898363 20.795503 25.596557 -153.014904 32.856502 -111.222827 2.885497 -0.028459 13.084902 28.918697 12.395242 5.829400 7.125000 0.000000 0.000000 34.242800 -16.859400 28.557200 
0.157215 17.737915 -0.247008 -0.838548 2.404520 2.139189 0.780905 5.594317 3.163553 -18.203138 -23.490832 3.730795 -0.951758 3.729094 14.563787 -2.049127 10.858275 -8.312458 1.375300 -7.421300 -20.969600 -3.588969 -5.766591 1.637496 22.206443 11.201478 10.260624 0.803167 1.229668 2.341163 1.285503 -9.068202 -7.538322 -1.034300 6.468700 -18.150500 -1.267868 -0.302098 -7.090785 -0.095032 -0.899639 4.666351 2.448490 -0.304038 0.942823 -22.203687 -12.930867 4.242073 14.362343 -16.646534 5.235123 8.823800 -9.286700 7.281600 -12.108824 -10.715318 2.919321 -72.014388 -24.266801 41.258588 151.708517 -35.491633 -110.346806 -1.401211 3.993069 -12.105535 -20.844045 39.708340 -12.140800 -7.125000 0.000000 0.000000 -57.064000 56.237500 -20.249500 11.224108 11.524906 3.179227 67.694643 21.644556 25.873195 -153.881305 32.006573 -111.764541 2.905593 0.049109 12.027163 28.343781 12.354096 5.643800 7.125000 0.000000 0.000000 33.974500 -17.024900 28.047600 
0.159667 17.737915 -0.244557 -0.858614 2.233065 2.236619 0.794135 5.579880 3.156942 -18.191456 -23.332687 3.595620 -0.948142 3.738180 14.600027 -2.036399 10.819939 -8.395623 1.368500 -7.403800 -20.917300 -3.575269 -5.762487 1.641927 22.202977 11.413827 10.193626 0.803380 1.225319 2.336837 1.285828 -9.073708 -7.536687 -1.035400 6.471900 -18.160000 -1.356763 -0.330395 -7.072734 0.159908 -0.929294 4.611647 2.474979 -0.304049 0.923134 -22.190036 -12.967281 3.896959 14.319113 -16.653692 5.197076 8.773900 -9.267800 7.316700 -12.252703 -10.747433 2.884617 -72.681304 -23.439474 42.132141 152.090067 -35.283021 -110.570438 -1.424518 3.985441 -12.409872 -20.586257 39.496226 -11.917400 -7.125000 0.000000 0.000000 -56.619100 56.161600 -19.892800 11.309413 11.570733 3.191196 67.597445 22.341369 26.222333 -154.751211 31.158711 -112.275768 2.939611 0.090834 10.945960 28.122100 12.140973 5.483300 7.125000 0.000000 0.000000 33.897200 -17.254000 27.726800 
0.160586 17.737711 -0.241901 -0.962034 2.077271 2.297231 0.798141 5.572566 3.160378 -18.063329 -23.185041 3.496540 -0.950630 3.738393 14.593486 -2.038514 10.829048 -8.415004 1.348600 -7.352000 -20.762400 -3.577762 -5.760856 1.641553 22.324467 11.587405 10.177986 0.805169 1.226093 2.334046 1.293611 -9.117736 -7.522158 -1.019800 6.424600 -18.021400 -1.224875 -0.285031 -7.022164 0.209734 -0.877049 4.583728 2.376609 -0.267559 0.869709 -21.989764 -13.061384 3.707811 14.366989 -16.729162 5.019455 8.734500 -9.274800 7.281600 -12.370057 -10.750531 2.845681 -73.315143 -22.595726 43.048267 152.388574 -35.139611 -110.747534 -1.507864 3.992093 -12.810864 -20.776487 39.500331 -11.999700 -7.125000 0.000000 0.000000 -56.714700 56.121300 -19.883800 11.400122 11.615369 3.202755 67.678925 22.844757 26.445770 -155.480741 30.463107 -112.675022 2.992352 0.142550 10.066820 28.039120 12.168282 5.456900 7.125000 0.000000 0.000000 33.826200 -17.260900 27.630400 
0.160177 17.739345 -0.237406 -0.994214 1.882287 2.410610 0.796536 5.557927 3.161929 -18.002033 -23.010762 3.330854 -0.946216 3.748861 14.628164 -2.026432 10.783025 -8.451686 1.294900 -7.209800 -20.338300 -3.581795 -5.759856 1.647495 22.364645 11.822152 10.112181 0.805539 1.224176 2.329089 1.300761 -9.148371 -7.469316 -1.001300 6.367600 -17.854800 -1.194297 -0.214838 -7.071963 0.215581 -0.788046 4.628411 2.338632 -0.212819 0.889251 -21.684971 -13.200187 3.321256 14.356813 -16.847045 4.930698 8.645200 -9.289500 7.306100 -12.459169 -10.754043 2.810308 -73.986462 -21.804561 43.843285 152.483857 -35.181854 -110.806873 -1.536569 3.976853 -13.188488 -20.651236 39.488259 -11.917500 -7.125000 0.000000 0.000000 -56.604900 56.147200 -19.863500 11.467473 11.653074 3.211959 67.817356 23.318510 26.606769 -156.097400 29.876220 -112.987697 3.081387 0.225554 9.222852 28.109813 12.564182 5.615800 7.125000 0.000000 0.000000 33.734000 -16.940100 27.821600 
0.161710 17.740469 -0.232605 -0.949651 1.678423 2.535745 0.789387 5.538169 3.156817 -18.028267 -22.830146 3.151211 -0.938083 3.765518 14.686850 -2.017113 10.753586 -8.491611 1.303100 -7.231600 -20.403500 -3.588656 -5.757723 1.651485 22.317144 12.069688 10.035836 0.805238 1.219547 2.323221 1.307095 -9.176069 -7.413892 -1.024000 6.437200 -18.058400 -1.191189 -0.139397 -7.138893 0.158640 -0.692178 4.627906 2.318384 -0.155583 0.907533 -21.479589 -13.332064 3.056821 14.411949 -16.973770 4.825863 8.599600 -9.318000 7.325300 -12.526768 -10.732650 2.773365 -74.686557 -20.940612 44.420449 152.403079 -35.379748 -110.787172 -1.587594 3.916144 -13.599508 -20.741402 39.204675 -11.884100 -7.125000 0.000000 0.000000 -56.392100 55.987400 -19.509300 11.541015 11.675448 3.211307 67.986735 23.543553 26.826348 -156.692158 29.325179 -113.272118 3.174489 0.298240 8.491135 28.291051 12.951867 5.801700 7.125000 0.000000 0.000000 33.693900 -16.602400 28.092600 
0.163651 17.740775 -0.227497 -1.047601 1.540857 2.611481 0.789704 5.527612 3.154921 -17.912942 -22.705252 3.031064 -0.933256 3.785012 14.732839 -2.028230 10.799329 -8.489087 1.376300 -7.423800 -20.977300 -3.596109 -5.756754 1.648984 22.432130 12.228186 10.009829 0.806442 1.220399 2.320421 1.314076 -9.209811 -7.381507 -1.101100 6.667500 -18.734000 -1.023331 -0.060172 -7.187666 0.124703 -0.599845 4.579054 2.212641 -0.101422 0.896188 -21.279426 -13.455691 3.072106 14.486151 -17.118549 4.642133 8.572500 -9.368500 7.279000 -12.587508 -10.679484 2.727706 -75.384179 -19.956900 44.924776 152.230935 -35.668119 -110.717828 -1.628698 3.840895 -13.950002 -20.832714 38.860942 -11.838700 -7.125000 0.000000 0.000000 -56.135700 55.798700 -19.090400 11.616455 11.681339 3.201161 68.236723 23.533701 27.096552 -157.232646 28.855855 -113.505270 3.281342 0.355067 7.758170 28.741761 13.284117 6.041300 7.125000 0.000000 0.000000 33.785200 -16.254600 28.542400 
0.164264 17.741082 -0.221163 -1.157304 1.409592 2.589688 0.795773 5.526992 3.174618 -17.806000 -22.565290 3.006092 -0.928774 3.798706 14.771626 -2.018582 10.762676 -8.530658 1.409300 -7.508600 -21.231300 -3.597732 -5.760396 1.660106 22.559719 12.347399 10.084131 0.807889 1.223702 2.320729 1.311530 -9.200093 -7.413359 -1.096000 6.652700 -18.690500 -0.937591 0.024005 -7.349579 0.159996 -0.494817 4.790925 2.155993 -0.042314 0.989537 -21.114310 -13.620188 3.096207 14.705192 -17.287155 4.282008 8.607100 -9.428600 7.190700 -12.621524 -10.630390 2.678714 -76.044147 -19.156098 45.335372 151.977839 -36.020848 -110.585388 -1.552194 3.765560 -13.961461 -20.296217 38.480015 -11.458600 -7.125000 0.000000 0.000000 -55.426200 55.712500 -18.593700 11.645969 11.702237 3.193218 68.378169 23.654803 27.245766 -157.659452 28.466558 -113.684520 3.363296 0.388223 6.728984 29.239669 13.245065 6.148400 7.125000 0.000000 0.000000 33.983000 -16.193400 28.861700 
0.163753 17.740877 -0.213093 -1.238635 1.269286 2.587817 0.807808 5.526577 3.195166 -17.736346 -22.418688 2.968808 -0.925346 3.807458 14.804296 -2.006131 10.719928 -8.601992 1.365400 -7.395700 -20.893100 -3.591184 -5.763960 1.676635 22.647279 12.484969 10.134449 0.809206 1.225473 2.319242 1.317830 -9.234070 -7.403614 -1.056900 6.536700 -18.349900 -0.983061 0.067797 -7.619237 0.313294 -0.433911 5.069129 2.172975 -0.005603 1.166193 -21.109361 -13.736032 3.054132 14.976941 -17.386371 3.974452 8.691300 -9.460800 7.140000 -12.644891 -10.587346 2.627848 -76.647690 -18.450931 45.531902 151.734829 -36.364581 -110.433069 -1.432113 3.712510 -13.577426 -19.704341 38.179525 -11.081800 -7.125000 0.000000 0.000000 -54.764100 55.675900 -18.203100 11.641357 11.719742 3.189227 68.410875 23.824177 27.402472 -157.930896 28.209093 -113.789616 3.437227 0.419474 5.293879 29.849131 12.985846 6.195200 7.125000 0.000000 0.000000 34.278300 -16.283600 29.168300 
0.164570 17.740469 -0.204410 -1.270095 1.176721 2.614736 0.834452 5.525767 3.199031 -17.750258 -22.313653 2.962297 -0.927224 3.801038 14.798077 -2.008825 10.740400 -8.650259 1.346900 -7.347500 -20.748900 -3.566651 -5.763181 1.686858 22.654443 12.585098 10.146691 0.809375 1.223235 2.316960 1.322611 -9.259541 -7.387034 -0.987500 6.325100 -17.730700 -1.199787 -0.025137 -7.795636 0.719892 -0.537506 5.156923 2.287386 -0.046978 1.271305 -21.476405 -13.680675 3.096859 15.242216 -17.295337 3.768318 8.849800 -9.426400 7.105100 -12.673669 -10.529138 2.577028 -77.311192 -17.676358 45.322972 151.409078 -36.795875 -110.228706 -1.316500 3.630443 -13.092703 -19.237505 37.671386 -10.725400 -7.125000 0.000000 0.000000 -54.002900 55.496600 -17.563600 11.628603 11.700615 3.175085 68.369123 23.771072 27.782943 -158.148249 28.039959 -113.832178 3.577926 0.452610 3.650452 31.133691 12.854757 6.483900 7.125000 0.000000 0.000000 34.814400 -16.110000 30.072800 
0.164161 17.739447 -0.197464 -1.267971 1.138497 2.639345 0.865389 5.526732 3.199625 -17.792589 -22.264187 2.979161 -0.931299 3.784719 14.769615 -1.983718 10.650102 -8.737866 1.264000 -7.126500 -20.090800 -3.531353 -5.761514 1.698117 22.617527 12.631096 10.146932 0.809499 1.219810 2.315884 1.321209 -9.263018 -7.420369 -0.930900 6.146200 -17.209200 -1.510748 -0.181895 -7.963652 1.238729 -0.716909 5.230665 2.462887 -0.125709 1.382684 -22.013098 -13.570181 3.123744 15.471683 -17.146725 3.631844 9.025900 -9.373900 7.096400 -12.681809 -10.478639 2.538105 -77.897218 -17.095661 45.055470 150.962576 -37.318564 -109.938096 -1.107568 3.540680 -12.137659 -18.402520 37.067653 -10.173900 -7.125000 0.000000 0.000000 -52.917900 55.327800 -16.799100 11.592636 11.666433 3.153442 68.218915 23.601322 28.259123 -158.292590 27.941521 -113.836758 3.720211 0.494874 2.216772 32.440377 12.854301 6.848300 7.125000 0.000000 0.000000 35.315500 -15.800300 31.097800 
